<svg width="64" height="64" viewBox="0 0 64 64" fill="none" xmlns="http://www.w3.org/2000/svg">
  <defs>
    <linearGradient id="bg" x1="0" y1="0" x2="64" y2="64">
      <stop offset="0%" stop-color="#06b6d4"/>
      <stop offset="50%" stop-color="#8b5cf6"/>
      <stop offset="100%" stop-color="#ec4899"/>
    </linearGradient>
    <linearGradient id="cl" x1="16" y1="12" x2="48" y2="52">
      <stop offset="0%" stop-color="#ffffff"/>
      <stop offset="100%" stop-color="#e0e7ff"/>
    </linearGradient>
  </defs>
  <rect rx="16" width="64" height="64" fill="url(#bg)"/>
  <path d="M18 14C18 14 22 28 20 42C19 48 22 52 26 50" stroke="url(#cl)" stroke-width="4.5" stroke-linecap="round" fill="none"/>
  <path d="M30 12C30 12 33 28 32 44C31 50 34 54 38 50" stroke="url(#cl)" stroke-width="4.5" stroke-linecap="round" fill="none"/>
  <path d="M42 14C42 14 44 28 44 42C44 48 46 52 50 48" stroke="url(#cl)" stroke-width="4.5" stroke-linecap="round" fill="none"/>
  <path d="M50 18L54 24L50 30L46 24Z" fill="#fbbf24" opacity="0.9"/>
</svg>
